<svg id="Layer_1" data-name="Layer 1" xmlns="http://www.w3.org/2000/svg" viewBox="0 0 132.52 132.52"><defs><style>.cls-1{fill:none;}.cls-2{fill:#c02042;}</style></defs><title>hit_fixup</title><rect class="cls-1" width="132.52" height="132.52"/><path class="cls-2" d="M129.09,40.58,103.8,83.12a6.92,6.92,0,0,1-5.8,3L79.58,85a8.87,8.87,0,0,1-6-3.35L63.4,66.75a6.48,6.48,0,0,1-.21-6.38l25.3-42.54c-19.65-1.29-39.29,8-49.81,25.71a50.44,50.44,0,0,0,2,54.73L17.72,138.19H71.37L81.25,121c19.65,1.28,39.3-8,49.8-25.71a50.4,50.4,0,0,0-2-54.73" transform="translate(-11.69 -11.69)"/></svg>