<svg id="Layer_1" data-name="Layer 1" xmlns="http://www.w3.org/2000/svg" viewBox="0 0 132.52 132.52"><defs><style>.cls-1{fill:#c02042;}.cls-2{fill:#fff;}</style></defs><title>hit_info</title><path class="cls-1" d="M11.69,78A66.26,66.26,0,1,1,78,144.21,66.27,66.27,0,0,1,11.69,78" transform="translate(-11.69 -11.69)"/><path class="cls-2" d="M87.21,104.49c0,9.19.57,10.37,5.27,10.77l2.71.26c1.14.79,1.14,3.81-.15,4.6-5-.27-10.54-.4-17.09-.4s-12.39.13-17.09.4c-1.28-.79-1.28-3.81-.14-4.6l2.71-.26c4.7-.4,5.27-1.58,5.27-10.77V84.65c0-5.25,0-6.83-2.71-8.4l-2-1.19a3,3,0,0,1,0-3.94c6.69-1.71,16.8-5.25,21.07-7.62a3,3,0,0,1,2.57,1.19c-.29,3.94-.43,9.72-.43,15.63Zm1.14-59.38c0,6.31-5.27,9.59-10.68,9.59-6.27,0-10-3.94-10-9.32,0-5.78,5-9.59,10.68-9.59C84.36,35.79,88.35,39.86,88.35,45.11Z" transform="translate(-11.69 -11.69)"/></svg>