<svg id="Layer_1" data-name="Layer 1" xmlns="http://www.w3.org/2000/svg" viewBox="0 0 132.52 132.52"><defs><style>.cls-1{fill:none;}.cls-2{fill:#c02042;}</style></defs><title>hit_error</title><rect class="cls-1" width="132.52" height="132.52"/><path class="cls-2" d="M135.56,36.05a9,9,0,0,1,0,12.72l-86.8,86.79a9,9,0,0,1-12.71,0L20.33,119.85a9,9,0,0,1,0-12.72l86.8-86.79a9,9,0,0,1,12.72,0Z" transform="translate(-11.69 -11.69)"/><path class="cls-2" d="M20.33,36.05a9,9,0,0,0,0,12.72l86.8,86.79a9,9,0,0,0,12.72,0l15.71-15.71a9,9,0,0,0,0-12.72L48.76,20.34a9,9,0,0,0-12.71,0Z" transform="translate(-11.69 -11.69)"/></svg>